<svg xmlns="http://www.w3.org/2000/svg" width="34" height="34" viewBox="0 0 34 34">
  <g id="グループ_64" data-name="グループ 64" transform="translate(0.043 0.063)">
    <circle id="楕円形_2" data-name="楕円形 2" cx="17" cy="17" r="17" transform="translate(-0.043 -0.063)" fill="#ffdb00"/>
    <g id="グループ_65" data-name="グループ 65" transform="translate(8.941 8.82)">
      <path id="パス_82" data-name="パス 82" d="M-141.665,266.986a13.718,13.718,0,0,0-.571-2.142l-.816-2.223h-6.527l-.816,2.223a10.171,10.171,0,0,0-.612,2.142h-3.345a22.363,22.363,0,0,0,1.081-2.407l4.487-11.769a12.082,12.082,0,0,0,.653-2.06h3.549a13.5,13.5,0,0,0,.693,2.06l4.528,11.769a21.41,21.41,0,0,0,1.04,2.407Zm-4.3-12.748c-.082-.224-.143-.469-.367-1.142-.326.959-.326.959-.388,1.142l-2.121,6.038h5.059Z" transform="translate(154.352 -250.75)" fill="#343434"/>
    </g>
  </g>
</svg>
