<svg xmlns="http://www.w3.org/2000/svg" width="34" height="34" viewBox="0 0 34 34">
  <g id="グループ_63" data-name="グループ 63" transform="translate(0.043)">
    <circle id="楕円形_1" data-name="楕円形 1" cx="17" cy="17" r="17" transform="translate(-0.043)" fill="#343434"/>
    <g id="グループ_62" data-name="グループ 62" transform="translate(10.08 9.306)">
      <path id="パス_81" data-name="パス 81" d="M-141.4,266.559a17.228,17.228,0,0,0-1.749-1.859,6.322,6.322,0,0,1-3.388.865,6.5,6.5,0,0,1-4.787-1.841,7.992,7.992,0,0,1-2.08-5.744c0-4.639,2.743-7.677,6.922-7.677,4.161,0,6.83,2.964,6.83,7.585a9.509,9.509,0,0,1-.589,3.406,6.76,6.76,0,0,1-1.381,2.172l.515.5a14.9,14.9,0,0,0,1.2,1.031Zm-3.406-6.26a18.136,18.136,0,0,0,1.436,1.491,5.663,5.663,0,0,0,1.141-3.94,5.964,5.964,0,0,0-1.473-4.29,3.9,3.9,0,0,0-2.835-1.123,3.975,3.975,0,0,0-2.854,1.123,6.08,6.08,0,0,0-1.473,4.382c0,3.332,1.712,5.486,4.363,5.486a3.534,3.534,0,0,0,1.657-.368,14.727,14.727,0,0,0-1.473-1.289Z" transform="translate(153.4 -250.302)" fill="#fff"/>
    </g>
  </g>
</svg>
