<svg xmlns="http://www.w3.org/2000/svg" width="26" height="25.998" viewBox="0 0 26 25.998">
  <g id="グループ_432" data-name="グループ 432" transform="translate(0 1)">
    <g id="グループ_42" data-name="グループ 42" transform="translate(0 -1)">
      <path id="パス_21" data-name="パス 21" d="M135.123,141.02a9.618,9.618,0,0,1-4.395-1.2,28.529,28.529,0,0,1-8.362-6.167,28.533,28.533,0,0,1-6.167-8.362c-2.609-5.036-.263-7.973.518-8.754l.866-.866a1.9,1.9,0,0,1,2.948.106,42.325,42.325,0,0,1,3.038,4.318,2.718,2.718,0,0,1-.411,3.381l-1.682,1.682a24.824,24.824,0,0,0,9.385,9.385l1.682-1.682a2.741,2.741,0,0,1,1.945-.82,2.771,2.771,0,0,1,1.435.409,42.321,42.321,0,0,1,4.318,3.038,2.06,2.06,0,0,1,.757,1.473,2,2,0,0,1-.651,1.475l-.86.859a6.136,6.136,0,0,1-4.365,1.722Z" transform="translate(-115 -115.022)" fill="#fff"/>
    </g>
    <g id="グループ_43" data-name="グループ 43" transform="translate(12.001 0.695)">
      <path id="パス_22" data-name="パス 22" d="M388.714,144.64a.806.806,0,0,1-.742-1.12,6.855,6.855,0,0,0-8.58-9.131.806.806,0,1,1-.534-1.521,8.466,8.466,0,0,1,10.6,11.28A.8.8,0,0,1,388.714,144.64Z" transform="translate(-378.319 -132.393)" fill="#fff"/>
    </g>
    <g id="グループ_44" data-name="グループ 44" transform="translate(12.348 4.192)">
      <path id="パス_23" data-name="パス 23" d="M402.631,217.653a.806.806,0,0,1-.742-1.12,3.949,3.949,0,0,0-4.944-5.261.806.806,0,1,1-.534-1.521,5.561,5.561,0,0,1,6.961,7.41.8.8,0,0,1-.742.492Z" transform="translate(-395.873 -209.439)" fill="#fff"/>
    </g>
  </g>
</svg>
